<?xml version="1.0" standalone="no"?>
<!DOCTYPE svg PUBLIC "-//W3C//DTD SVG 20010904//EN"
 "http://www.w3.org/TR/2001/REC-SVG-20010904/DTD/svg10.dtd">
<svg version="1.0" xmlns="http://www.w3.org/2000/svg"
 width="1024.000000pt" height="1024.000000pt" viewBox="0 0 1024.000000 1024.000000"
 preserveAspectRatio="xMidYMid meet">

<g transform="translate(0.000000,1024.000000) scale(0.100000,-0.100000)"
fill="#000000" stroke="none">
<path d="M0 5120 l0 -5120 4720 0 4720 0 0 80 0 80 320 0 320 0 0 -80 0 -80
80 0 80 0 0 5120 0 5120 -5120 0 -5120 0 0 -5120z m5182 2923 l-3 -1372 -37
-22 c-20 -12 -48 -32 -62 -45 -14 -12 -52 -37 -85 -54 -33 -18 -62 -35 -65
-39 -11 -14 -188 -127 -230 -147 -25 -11 -58 -32 -75 -45 -33 -27 -98 -69
-189 -119 -32 -18 -73 -46 -91 -62 -18 -15 -52 -35 -76 -43 -23 -9 -59 -28
-78 -43 -50 -39 -124 -85 -212 -132 -42 -22 -94 -57 -115 -76 -22 -20 -70 -50
-109 -68 -66 -32 -129 -70 -206 -128 -19 -14 -55 -35 -81 -47 -26 -12 -69 -38
-96 -58 -27 -20 -79 -52 -116 -72 -36 -20 -114 -66 -173 -102 -106 -65 -186
-109 -199 -109 -3 0 8 16 24 34 17 19 61 97 98 173 37 76 77 152 90 169 13 17
54 91 92 165 38 74 86 163 107 199 21 36 59 106 85 155 26 50 71 131 100 180
52 88 88 155 145 265 15 30 38 71 50 90 38 62 107 183 150 265 70 135 78 148
112 202 18 29 33 55 33 58 0 4 8 19 18 33 10 15 25 43 32 62 7 19 33 66 58
104 24 38 68 119 97 180 30 61 74 142 99 179 25 38 50 85 57 105 6 20 17 44
24 52 6 8 33 53 60 100 26 47 53 92 60 100 6 8 18 31 25 50 8 19 29 57 47 85
18 27 33 54 33 60 0 5 18 37 40 70 22 33 40 68 40 78 0 10 14 36 32 58 17 21
44 63 58 92 15 28 40 77 55 107 16 30 33 66 39 80 6 14 17 33 26 44 24 29 86
135 121 206 17 36 45 84 60 107 16 23 52 89 80 148 28 59 52 105 52 103 1 -2
1 -620 -1 -1375z m171 1236 c21 -41 49 -88 62 -105 13 -17 49 -82 81 -145 31
-63 72 -135 90 -160 19 -26 34 -52 34 -58 0 -16 38 -90 65 -126 13 -16 48 -79
80 -140 32 -60 67 -123 79 -140 21 -30 47 -77 113 -210 20 -38 46 -83 58 -100
13 -16 51 -86 85 -155 34 -69 72 -138 84 -155 13 -16 44 -73 71 -125 26 -52
61 -114 77 -137 16 -24 35 -61 43 -84 15 -40 60 -121 121 -214 18 -27 41 -70
51 -95 22 -55 67 -135 110 -201 18 -27 40 -68 50 -91 9 -24 31 -63 48 -88 18
-25 63 -103 100 -175 38 -71 77 -143 88 -159 11 -16 48 -86 83 -156 35 -70 74
-140 87 -156 21 -27 77 -141 77 -159 0 -5 6 -16 14 -24 21 -23 125 -208 148
-261 11 -25 25 -52 33 -60 31 -35 177 -318 167 -324 -4 -2 -32 15 -62 37 -31
23 -93 62 -139 87 -46 25 -125 73 -176 107 -50 33 -112 71 -136 83 -24 13 -87
51 -139 85 -52 34 -104 65 -115 68 -21 7 -163 96 -226 142 -19 14 -58 37 -87
50 -28 13 -75 41 -104 63 -29 22 -93 62 -143 90 -49 28 -103 61 -120 74 -16
13 -48 35 -70 48 -118 69 -281 171 -368 229 -54 36 -123 80 -153 96 -30 17
-71 42 -92 56 -20 14 -56 38 -79 52 l-43 27 0 1284 c0 706 -3 1311 -7 1346 -8
83 8 78 60 -21z m-173 -4150 l0 -1381 -37 27 c-21 16 -42 33 -48 39 -13 15
-83 56 -96 56 -6 0 -62 34 -124 75 -63 41 -120 75 -128 75 -7 0 -43 19 -79 42
-37 24 -101 63 -143 88 -42 25 -110 67 -150 93 -41 26 -88 53 -106 59 -18 6
-68 34 -111 62 -138 90 -192 123 -227 137 -19 7 -49 25 -65 39 -29 24 -165
105 -246 145 -19 10 -55 34 -80 54 -25 21 -73 49 -108 64 -64 27 -188 103
-232 142 -14 12 -47 30 -75 40 -27 10 -63 28 -80 40 -16 12 -50 32 -75 45 -65
32 -73 40 -59 56 6 8 21 14 33 14 29 0 148 66 246 137 14 10 54 33 90 51 36
18 82 47 102 63 21 16 61 41 90 56 60 29 244 148 253 163 3 5 23 14 45 20 21
6 63 30 93 55 30 24 106 72 168 106 63 34 130 75 149 92 19 16 57 41 86 54 28
13 71 39 95 58 24 19 48 35 52 35 5 0 27 15 50 34 23 18 57 38 76 45 19 6 57
29 85 51 29 21 69 47 91 57 22 10 87 50 145 88 58 39 125 81 150 94 25 13 69
44 98 68 30 23 58 43 63 43 5 0 9 -560 9 -1381z m174 1354 c23 -15 54 -38 71
-51 16 -13 54 -36 85 -51 30 -15 76 -43 102 -62 25 -18 75 -50 109 -69 35 -19
95 -55 134 -80 38 -25 101 -63 138 -84 38 -21 83 -50 100 -65 18 -15 77 -54
132 -86 54 -32 125 -77 156 -100 31 -23 85 -56 120 -73 35 -18 96 -55 134 -82
39 -27 99 -63 135 -80 36 -17 76 -42 90 -54 14 -13 86 -58 160 -101 74 -43
145 -87 156 -97 12 -11 36 -27 53 -36 156 -85 322 -193 318 -206 -3 -9 -73
-54 -178 -114 -98 -57 -196 -117 -233 -144 -21 -15 -47 -28 -56 -28 -9 0 -26
-10 -38 -23 -12 -13 -43 -34 -68 -46 -25 -13 -69 -38 -97 -57 -28 -19 -55 -34
-59 -34 -11 0 -51 -19 -78 -38 -14 -9 -41 -26 -59 -37 -18 -11 -46 -30 -61
-42 -15 -13 -62 -41 -105 -63 -43 -22 -91 -52 -108 -66 -16 -14 -60 -41 -96
-60 -77 -41 -113 -62 -201 -119 -36 -23 -75 -46 -87 -49 -12 -4 -44 -22 -70
-40 -72 -49 -190 -119 -256 -150 -32 -16 -79 -44 -105 -63 -25 -20 -71 -47
-102 -61 -30 -14 -71 -38 -90 -52 -19 -15 -51 -36 -70 -48 l-35 -21 2 1372 c2
755 3 1375 3 1380 0 12 13 8 54 -20z m-2302 -2050 c36 -24 70 -43 74 -43 3 0
29 -16 56 -35 27 -20 68 -43 91 -52 23 -9 49 -22 57 -28 8 -7 31 -21 50 -30
39 -20 224 -133 285 -175 22 -15 69 -41 105 -59 36 -17 81 -45 100 -61 19 -17
51 -37 70 -47 52 -24 196 -110 268 -160 35 -24 70 -43 77 -43 8 0 29 -13 47
-28 18 -16 62 -46 98 -66 35 -21 77 -49 93 -62 16 -13 37 -24 47 -24 11 0 40
-15 65 -32 103 -72 208 -139 380 -241 61 -36 122 -76 137 -89 l28 -23 1 -927
c0 -511 -3 -929 -8 -930 -4 -1 -21 19 -38 45 -16 26 -48 74 -70 108 -22 34
-63 97 -91 142 -28 44 -60 88 -70 96 -20 17 -84 112 -84 125 0 4 -26 45 -59
89 -32 45 -80 116 -106 157 -26 41 -73 109 -105 151 -32 41 -61 85 -65 97 -3
13 -29 49 -56 82 -27 32 -58 78 -70 102 -24 47 -58 96 -132 191 -27 34 -62 87
-80 117 -17 30 -47 75 -68 100 -20 25 -49 69 -63 98 -15 28 -30 52 -34 52 -8
0 -102 131 -178 245 -21 33 -44 65 -51 70 -6 6 -30 40 -52 77 -22 37 -67 100
-99 140 -33 40 -67 88 -76 107 -17 31 -59 88 -139 186 -18 22 -43 59 -55 83
-12 24 -45 71 -73 104 -28 34 -56 73 -62 87 -13 31 -117 170 -141 191 -10 7
-27 32 -38 54 -11 23 -31 55 -44 72 -13 17 -20 34 -17 37 7 7 4 9 95 -50z
m4419 -28 c-23 -30 -46 -55 -50 -55 -5 0 -18 -15 -29 -32 -11 -18 -43 -64 -71
-103 -28 -38 -67 -97 -87 -130 -20 -33 -47 -70 -59 -83 -13 -13 -60 -78 -105
-145 -45 -67 -95 -135 -110 -152 -15 -16 -37 -48 -48 -70 -11 -22 -35 -60 -54
-84 -76 -101 -87 -118 -108 -156 -12 -22 -34 -53 -49 -70 -28 -30 -71 -91
-147 -210 -22 -35 -57 -82 -78 -105 -20 -23 -45 -60 -55 -83 -10 -23 -26 -49
-36 -57 -10 -8 -61 -80 -113 -160 -53 -80 -112 -165 -132 -190 -20 -25 -47
-65 -60 -90 -13 -25 -36 -61 -50 -80 -87 -115 -112 -151 -132 -188 -28 -50
-175 -266 -234 -343 -24 -31 -49 -70 -56 -85 -7 -16 -29 -49 -49 -74 -35 -43
-99 -144 -99 -156 0 -5 -48 -72 -60 -84 -3 -3 -11 -16 -18 -30 -14 -26 -68
-90 -77 -90 -3 0 -5 414 -5 919 l0 920 26 20 c15 12 32 21 39 21 11 0 189 115
230 149 11 9 29 21 40 27 92 50 129 72 192 115 40 27 77 49 82 49 6 0 66 37
133 83 68 45 139 89 158 97 19 7 53 28 75 45 38 29 73 54 120 82 11 6 52 28
91 47 39 19 81 46 95 59 13 13 60 43 104 67 44 24 105 57 135 73 30 17 72 44
92 62 21 17 56 38 79 45 23 8 53 23 67 34 42 33 190 124 215 132 12 3 34 15
49 26 62 44 183 107 186 98 2 -6 -15 -35 -37 -65z"/>
</g>
</svg>
